<?xml version="1.0" encoding="UTF-8" standalone="no"?><svg xmlns="http://www.w3.org/2000/svg" xmlns:xlink="http://www.w3.org/1999/xlink" contentStyleType="text/css" height="574px" preserveAspectRatio="none" style="width:232px;height:574px;background:#FFFFFF;" version="1.1" viewBox="0 0 232 574" width="232px" zoomAndPan="magnify"><defs/><g><!--MD5=[8fd473fd151a2794da4f2c8684676405]
cluster Presentation--><g id="cluster_Presentation"><rect fill="none" height="100" rx="2.5" ry="2.5" style="stroke:#181818;stroke-width:1.0;" width="186" x="10" y="7"/><path d="M110,7 L110,17.6094 L100,27.6094 L10,27.6094 " fill="none" style="stroke:#181818;stroke-width:1.0;"/><text fill="#000000" font-family="sans-serif" font-size="14" font-weight="bold" lengthAdjust="spacing" textLength="90" x="13" y="22.5332">Presentation</text></g><!--MD5=[d64883541e3d62e3241c4d12decf100d]
cluster Application--><g id="cluster_Application"><rect fill="none" height="100" rx="2.5" ry="2.5" style="stroke:#181818;stroke-width:1.0;" width="170" x="18" y="171"/><path d="M106,171 L106,181.6094 L96,191.6094 L18,191.6094 " fill="none" style="stroke:#181818;stroke-width:1.0;"/><text fill="#000000" font-family="sans-serif" font-size="14" font-weight="bold" lengthAdjust="spacing" textLength="78" x="21" y="186.5332">Application</text></g><!--MD5=[9ddaf8ee8bcae11a9a9232f969198262]
cluster Infrastructure--><g id="cluster_Infrastructure"><rect fill="none" height="100" rx="2.5" ry="2.5" style="stroke:#181818;stroke-width:1.0;" width="192" x="7" y="335"/><path d="M114,335 L114,345.6094 L104,355.6094 L7,355.6094 " fill="none" style="stroke:#181818;stroke-width:1.0;"/><text fill="#000000" font-family="sans-serif" font-size="14" font-weight="bold" lengthAdjust="spacing" textLength="97" x="10" y="350.5332">Infrastructure</text></g><!--MD5=[121a8bf1197281ab89ed693fab589f94]
cluster Domain--><g id="cluster_Domain"><rect fill="none" height="100" rx="2.5" ry="2.5" style="stroke:#181818;stroke-width:1.0;" width="124" x="41" y="468"/><path d="M103,468 L103,478.6094 L93,488.6094 L41,488.6094 " fill="none" style="stroke:#181818;stroke-width:1.0;"/><text fill="#000000" font-family="sans-serif" font-size="14" font-weight="bold" lengthAdjust="spacing" textLength="52" x="44" y="483.5332">Domain</text></g><!--MD5=[f855680bc6c989572ebb25245d27968d]
entity Controller--><g id="elem_Controller"><rect fill="#A7D7FD" height="47.6094" rx="2.5" ry="2.5" style="stroke:#181818;stroke-width:0.5;" width="153" x="26.5" y="43"/><rect fill="#A7D7FD" height="10" style="stroke:#181818;stroke-width:0.5;" width="15" x="159.5" y="48"/><rect fill="#A7D7FD" height="2" style="stroke:#181818;stroke-width:0.5;" width="4" x="157.5" y="50"/><rect fill="#A7D7FD" height="2" style="stroke:#181818;stroke-width:0.5;" width="4" x="157.5" y="54"/><text fill="#000000" font-family="sans-serif" font-size="14" lengthAdjust="spacing" textLength="113" x="41.5" y="77.5332">AccountController</text></g><!--MD5=[17737e49c286898813382e12d6080e03]
entity Service--><g id="elem_Service"><rect fill="#A2FDBA" height="47.6094" rx="2.5" ry="2.5" style="stroke:#181818;stroke-width:0.5;" width="138" x="34" y="207"/><rect fill="#A2FDBA" height="10" style="stroke:#181818;stroke-width:0.5;" width="15" x="152" y="212"/><rect fill="#A2FDBA" height="2" style="stroke:#181818;stroke-width:0.5;" width="4" x="150" y="214"/><rect fill="#A2FDBA" height="2" style="stroke:#181818;stroke-width:0.5;" width="4" x="150" y="218"/><text fill="#000000" font-family="sans-serif" font-size="14" lengthAdjust="spacing" textLength="98" x="49" y="241.5332">AccountService</text></g><!--MD5=[4e260e4024c27e03c495c33059d2b5ff]
entity Repository--><g id="elem_Repository"><rect fill="#FFA09C" height="47.6094" rx="2.5" ry="2.5" style="stroke:#181818;stroke-width:0.5;" width="159" x="23.5" y="371"/><rect fill="#FFA09C" height="10" style="stroke:#181818;stroke-width:0.5;" width="15" x="162.5" y="376"/><rect fill="#FFA09C" height="2" style="stroke:#181818;stroke-width:0.5;" width="4" x="160.5" y="378"/><rect fill="#FFA09C" height="2" style="stroke:#181818;stroke-width:0.5;" width="4" x="160.5" y="382"/><text fill="#000000" font-family="sans-serif" font-size="14" lengthAdjust="spacing" textLength="119" x="38.5" y="405.5332">AccountRepository</text></g><!--MD5=[d98cb1d0eeb2b90d1ef52cfc0fcf4fea]
entity Model--><g id="elem_Model"><rect fill="#FCFDB9" height="47.6094" rx="2.5" ry="2.5" style="stroke:#181818;stroke-width:0.5;" width="91" x="57.5" y="504"/><rect fill="#FCFDB9" height="10" style="stroke:#181818;stroke-width:0.5;" width="15" x="128.5" y="509"/><rect fill="#FCFDB9" height="2" style="stroke:#181818;stroke-width:0.5;" width="4" x="126.5" y="511"/><rect fill="#FCFDB9" height="2" style="stroke:#181818;stroke-width:0.5;" width="4" x="126.5" y="515"/><text fill="#000000" font-family="sans-serif" font-size="14" lengthAdjust="spacing" textLength="51" x="72.5" y="538.5332">Account</text></g><!--MD5=[6ee88e067ac5b020ca91296d15764b13]
link Controller to Service--><g id="link_Controller_Service"><path d="M103,91.21 C103,122.01 103,176.06 103,206.83 " fill="none" id="Controller-Service" style="stroke:#181818;stroke-width:1.0;"/><text fill="#000000" font-family="sans-serif" font-size="13" lengthAdjust="spacing" textLength="93" x="111" y="144.4951">IAccountService</text><path d="M110.0711,141.9602 A10,10 0 0 0 95.9289 141.9602" fill="none" style="stroke:#181818;stroke-width:1.5;"/><ellipse cx="103" cy="149.0313" fill="#FFFFFF" rx="6" ry="6" style="stroke:#181818;stroke-width:1.5;"/></g><!--MD5=[81f86c4a65986ff24d640374da06d0c2]
link Service to Repository--><g id="link_Service_Repository"><path d="M103,255.21 C103,286.01 103,340.06 103,370.83 " fill="none" id="Service-Repository" style="stroke:#181818;stroke-width:1.0;"/><text fill="#000000" font-family="sans-serif" font-size="13" lengthAdjust="spacing" textLength="113" x="111" y="308.4951">IAccountRepository</text><path d="M110.0711,305.9602 A10,10 0 0 0 95.9289 305.9602" fill="none" style="stroke:#181818;stroke-width:1.5;"/><ellipse cx="103" cy="313.0313" fill="#FFFFFF" rx="6" ry="6" style="stroke:#181818;stroke-width:1.5;"/></g><!--MD5=[fab585b61aa7b222b13c3896e9f66b36]
link Repository to Model--><g id="link_Repository_Model"><path d="M103,419.12 C103,442.92 103,479.8 103,503.67 " fill="none" id="Repository-Model" style="stroke:#181818;stroke-width:1.0;"/></g><!--MD5=[5e8efb9ba028eaa1b6ec8021a5d40783]
@startuml Account

frame Presentation {
    component [AccountController] as Controller #a7d7fd
}

frame Application {
    component AccountService as Service #a2fdba
}

Controller -(0- Service : IAccountService

frame Infrastructure {
    component [AccountRepository] as Repository #ffa09c
}

Service -(0- Repository : IAccountRepository

frame Domain {
    component Account as Model #fcfdb9  
}

Repository - - Model

@enduml

PlantUML version 1.2022.7(Mon Aug 22 13:01:30 EDT 2022)
(GPL source distribution)
Java Runtime: OpenJDK Runtime Environment
JVM: OpenJDK 64-Bit Server VM
Default Encoding: UTF-8
Language: en
Country: US
--></g></svg>