<?xml version="1.0" encoding="UTF-8" standalone="no"?><svg xmlns="http://www.w3.org/2000/svg" xmlns:xlink="http://www.w3.org/1999/xlink" contentStyleType="text/css" height="878px" preserveAspectRatio="none" style="width:435px;height:878px;background:#FFFFFF;" version="1.1" viewBox="0 0 435 878" width="435px" zoomAndPan="magnify"><defs/><g><!--MD5=[8fd473fd151a2794da4f2c8684676405]
cluster Presentation--><g id="cluster_Presentation"><rect fill="none" height="100" rx="2.5" ry="2.5" style="stroke:#181818;stroke-width:1.0;" width="156" x="140" y="7"/><path d="M240,7 L240,17.6094 L230,27.6094 L140,27.6094 " fill="none" style="stroke:#181818;stroke-width:1.0;"/><text fill="#000000" font-family="sans-serif" font-size="14" font-weight="bold" lengthAdjust="spacing" textLength="90" x="143" y="22.5332">Presentation</text></g><!--MD5=[fac864e77539af95038f0151207ed802]
cluster API--><g id="cluster_API"><rect fill="none" height="100" rx="2.5" ry="2.5" style="stroke:#181818;stroke-width:1.0;" width="415" x="7" y="171"/><path d="M39,171 L39,181.6094 L29,191.6094 L7,191.6094 " fill="none" style="stroke:#181818;stroke-width:1.0;"/><text fill="#000000" font-family="sans-serif" font-size="14" font-weight="bold" lengthAdjust="spacing" textLength="22" x="10" y="186.5332">API</text></g><!--MD5=[d64883541e3d62e3241c4d12decf100d]
cluster Application--><g id="cluster_Application"><rect fill="none" height="209" rx="2.5" ry="2.5" style="stroke:#181818;stroke-width:1.0;" width="363" x="26" y="335"/><path d="M114,335 L114,345.6094 L104,355.6094 L26,355.6094 " fill="none" style="stroke:#181818;stroke-width:1.0;"/><text fill="#000000" font-family="sans-serif" font-size="14" font-weight="bold" lengthAdjust="spacing" textLength="78" x="29" y="350.5332">Application</text></g><!--MD5=[d5a3d42fe8c59d64262d518360b1c9a2]
cluster Domain Service--><g id="cluster_Domain Service"><rect fill="none" height="100" rx="2.5" ry="2.5" style="stroke:#181818;stroke-width:1.0;" width="180" x="127" y="608"/><path d="M247,608 L247,618.6094 L237,628.6094 L127,628.6094 " fill="none" style="stroke:#181818;stroke-width:1.0;"/><text fill="#000000" font-family="sans-serif" font-size="14" font-weight="bold" lengthAdjust="spacing" textLength="110" x="130" y="623.5332">Domain Service</text></g><!--MD5=[8e95e7a100d173fd1b0244601baa4063]
cluster Domain Model--><g id="cluster_Domain Model"><rect fill="none" height="100" rx="2.5" ry="2.5" style="stroke:#181818;stroke-width:1.0;" width="116" x="159" y="772"/><path d="M269,772 L269,782.6094 L259,792.6094 L159,792.6094 " fill="none" style="stroke:#181818;stroke-width:1.0;"/><text fill="#000000" font-family="sans-serif" font-size="14" font-weight="bold" lengthAdjust="spacing" textLength="100" x="162" y="787.5332">Domain Model</text></g><!--MD5=[5fa5ac3860aa5d5ffc2f1557e5ab2dfe]
entity ClientController--><g id="elem_ClientController"><rect fill="#A7D7FD" height="47.6094" rx="2.5" ry="2.5" style="stroke:#181818;stroke-width:0.5;" width="123" x="156.5" y="43"/><rect fill="#A7D7FD" height="10" style="stroke:#181818;stroke-width:0.5;" width="15" x="259.5" y="48"/><rect fill="#A7D7FD" height="2" style="stroke:#181818;stroke-width:0.5;" width="4" x="257.5" y="50"/><rect fill="#A7D7FD" height="2" style="stroke:#181818;stroke-width:0.5;" width="4" x="257.5" y="54"/><text fill="#000000" font-family="sans-serif" font-size="14" lengthAdjust="spacing" textLength="83" x="171.5" y="77.5332">ClientService</text></g><!--MD5=[87e9134534c374160597a990a0538c50]
entity QueryService--><g id="elem_QueryService"><rect fill="#A2FDBA" height="47.6094" rx="2.5" ry="2.5" style="stroke:#181818;stroke-width:0.5;" width="164" x="23" y="207"/><rect fill="#A2FDBA" height="10" style="stroke:#181818;stroke-width:0.5;" width="15" x="167" y="212"/><rect fill="#A2FDBA" height="2" style="stroke:#181818;stroke-width:0.5;" width="4" x="165" y="214"/><rect fill="#A2FDBA" height="2" style="stroke:#181818;stroke-width:0.5;" width="4" x="165" y="218"/><text fill="#000000" font-family="sans-serif" font-size="14" lengthAdjust="spacing" textLength="124" x="38" y="241.5332">GetLeaveController</text></g><!--MD5=[4d3a2028c2ca4e473806b82001569389]
entity CommandService--><g id="elem_CommandService"><rect fill="#A2FDBA" height="47.6094" rx="2.5" ry="2.5" style="stroke:#181818;stroke-width:0.5;" width="184" x="222" y="207"/><rect fill="#A2FDBA" height="10" style="stroke:#181818;stroke-width:0.5;" width="15" x="386" y="212"/><rect fill="#A2FDBA" height="2" style="stroke:#181818;stroke-width:0.5;" width="4" x="384" y="214"/><rect fill="#A2FDBA" height="2" style="stroke:#181818;stroke-width:0.5;" width="4" x="384" y="218"/><text fill="#000000" font-family="sans-serif" font-size="14" lengthAdjust="spacing" textLength="144" x="237" y="241.5332">CreateLeaveController</text></g><!--MD5=[df3e39cca9e639b032bcb56e6238e548]
entity Request--><g id="elem_Request"><rect fill="#FFA09C" height="47.6094" rx="2.5" ry="2.5" style="stroke:#181818;stroke-width:0.5;" width="93" x="259.5" y="371"/><rect fill="#FFA09C" height="10" style="stroke:#181818;stroke-width:0.5;" width="15" x="332.5" y="376"/><rect fill="#FFA09C" height="2" style="stroke:#181818;stroke-width:0.5;" width="4" x="330.5" y="378"/><rect fill="#FFA09C" height="2" style="stroke:#181818;stroke-width:0.5;" width="4" x="330.5" y="382"/><text fill="#000000" font-family="sans-serif" font-size="14" lengthAdjust="spacing" textLength="53" x="274.5" y="405.5332">Request</text></g><!--MD5=[262c7ed11511f0bb3751bc71595465d7]
entity RequestHandler--><g id="elem_RequestHandler"><rect fill="#FFA09C" height="47.6094" rx="2.5" ry="2.5" style="stroke:#181818;stroke-width:0.5;" width="142" x="231" y="480"/><rect fill="#FFA09C" height="10" style="stroke:#181818;stroke-width:0.5;" width="15" x="353" y="485"/><rect fill="#FFA09C" height="2" style="stroke:#181818;stroke-width:0.5;" width="4" x="351" y="487"/><rect fill="#FFA09C" height="2" style="stroke:#181818;stroke-width:0.5;" width="4" x="351" y="491"/><text fill="#000000" font-family="sans-serif" font-size="14" lengthAdjust="spacing" textLength="102" x="246" y="514.5332">RequestHandler</text></g><!--MD5=[e92c63db3bab30672c9b345919c8e067]
entity Command--><g id="elem_Command"><rect fill="#FFA09C" height="47.6094" rx="2.5" ry="2.5" style="stroke:#181818;stroke-width:0.5;" width="104" x="55" y="371"/><rect fill="#FFA09C" height="10" style="stroke:#181818;stroke-width:0.5;" width="15" x="139" y="376"/><rect fill="#FFA09C" height="2" style="stroke:#181818;stroke-width:0.5;" width="4" x="137" y="378"/><rect fill="#FFA09C" height="2" style="stroke:#181818;stroke-width:0.5;" width="4" x="137" y="382"/><text fill="#000000" font-family="sans-serif" font-size="14" lengthAdjust="spacing" textLength="64" x="70" y="405.5332">Command</text></g><!--MD5=[3dafe86b8fd4d2c4658cdc7faa988207]
entity CommandHandler--><g id="elem_CommandHandler"><rect fill="#FFA09C" height="47.6094" rx="2.5" ry="2.5" style="stroke:#181818;stroke-width:0.5;" width="153" x="42.5" y="480"/><rect fill="#FFA09C" height="10" style="stroke:#181818;stroke-width:0.5;" width="15" x="175.5" y="485"/><rect fill="#FFA09C" height="2" style="stroke:#181818;stroke-width:0.5;" width="4" x="173.5" y="487"/><rect fill="#FFA09C" height="2" style="stroke:#181818;stroke-width:0.5;" width="4" x="173.5" y="491"/><text fill="#000000" font-family="sans-serif" font-size="14" lengthAdjust="spacing" textLength="113" x="57.5" y="514.5332">CommandHandler</text></g><!--MD5=[4e260e4024c27e03c495c33059d2b5ff]
entity Repository--><g id="elem_Repository"><rect fill="#E1D5E7" height="47.6094" rx="2.5" ry="2.5" style="stroke:#181818;stroke-width:0.5;" width="147" x="143.5" y="644"/><rect fill="#E1D5E7" height="10" style="stroke:#181818;stroke-width:0.5;" width="15" x="270.5" y="649"/><rect fill="#E1D5E7" height="2" style="stroke:#181818;stroke-width:0.5;" width="4" x="268.5" y="651"/><rect fill="#E1D5E7" height="2" style="stroke:#181818;stroke-width:0.5;" width="4" x="268.5" y="655"/><text fill="#000000" font-family="sans-serif" font-size="14" lengthAdjust="spacing" textLength="107" x="158.5" y="678.5332">LeaveRepository</text></g><!--MD5=[d98cb1d0eeb2b90d1ef52cfc0fcf4fea]
entity Model--><g id="elem_Model"><rect fill="#FCFDB9" height="47.6094" rx="2.5" ry="2.5" style="stroke:#181818;stroke-width:0.5;" width="79" x="177.5" y="808"/><rect fill="#FCFDB9" height="10" style="stroke:#181818;stroke-width:0.5;" width="15" x="236.5" y="813"/><rect fill="#FCFDB9" height="2" style="stroke:#181818;stroke-width:0.5;" width="4" x="234.5" y="815"/><rect fill="#FCFDB9" height="2" style="stroke:#181818;stroke-width:0.5;" width="4" x="234.5" y="819"/><text fill="#000000" font-family="sans-serif" font-size="14" lengthAdjust="spacing" textLength="39" x="192.5" y="842.5332">Leave</text></g><!--MD5=[3c070da8349eecfc4482c936660c4ff7]
link ClientController to QueryService--><g id="link_ClientController_QueryService"><path d="M182.25,91 C170.49,99.9 158.11,110.87 149,123 C129.71,148.7 117.34,184.07 110.78,206.99 " fill="none" id="ClientController-QueryService" style="stroke:#181818;stroke-width:1.0;"/><text fill="#000000" font-family="sans-serif" font-size="13" lengthAdjust="spacing" textLength="78" x="157" y="144.4951">ILeaveService</text><path d="M158.9004,121.5923 A10,10 0 0 0 147.5923 113.0996" fill="none" style="stroke:#181818;stroke-width:1.5;"/><ellipse cx="149" cy="123" fill="#FFFFFF" rx="6" ry="6" style="stroke:#181818;stroke-width:1.5;"/></g><!--MD5=[910df482b73f25140134364d0a89c86c]
link ClientController to CommandService--><g id="link_ClientController_CommandService"><path d="M231.75,91.21 C250,122.01 282.03,176.06 300.27,206.83 " fill="none" id="ClientController-CommandService" style="stroke:#181818;stroke-width:1.0;"/><text fill="#000000" font-family="sans-serif" font-size="13" lengthAdjust="spacing" textLength="78" x="276" y="144.4951">ILeaveService</text><path d="M268.4919,139.3432 A10,10 0 0 0 256.3257 146.5531" fill="none" style="stroke:#181818;stroke-width:1.5;"/><ellipse cx="266.0137" cy="149.0313" fill="#FFFFFF" rx="6" ry="6" style="stroke:#181818;stroke-width:1.5;"/></g><!--MD5=[c086ad1f21c12be9a91ced34db13e18d]
link QueryService to Command--><g id="link_QueryService_Command"><path d="M105.29,255.21 C105.67,286.01 106.33,340.06 106.71,370.83 " fill="none" id="QueryService-Command" style="stroke:#181818;stroke-width:1.0;"/><text fill="#000000" font-family="sans-serif" font-size="13" lengthAdjust="spacing" textLength="119" x="115" y="308.4951">IMediator ICommand</text><path d="M112.9839,305.874 A10,10 0 0 0 98.8428 306.0474" fill="none" style="stroke:#181818;stroke-width:1.5;"/><ellipse cx="106" cy="313.0313" fill="#FFFFFF" rx="6" ry="6" style="stroke:#181818;stroke-width:1.5;"/></g><!--MD5=[ed2a1ec9ea61dd07e4db5ad33382e6d0]
link CommandService to Request--><g id="link_CommandService_Request"><path d="M312.85,255.21 C311.33,286.01 308.66,340.06 307.14,370.83 " fill="none" id="CommandService-Request" style="stroke:#181818;stroke-width:1.0;"/><text fill="#000000" font-family="sans-serif" font-size="13" lengthAdjust="spacing" textLength="108" x="319" y="308.4951">IMediator IRequest</text><path d="M317.4063,306.3176 A10,10 0 0 0 303.2814 305.62" fill="none" style="stroke:#181818;stroke-width:1.5;"/><ellipse cx="309.995" cy="313.0313" fill="#FFFFFF" rx="6" ry="6" style="stroke:#181818;stroke-width:1.5;"/></g><!--MD5=[54b5a37ba6ce2f575476f0f103dd3cc3]
link Request to RequestHandler--><g id="link_Request_RequestHandler"><path d="M305.13,419.22 C304.52,435.48 303.71,457.32 303.06,474.62 " fill="none" id="Request-to-RequestHandler" style="stroke:#181818;stroke-width:1.0;"/><polygon fill="#181818" points="302.87,479.83,307.2013,470.9847,303.0556,474.8334,299.2068,470.6877,302.87,479.83" style="stroke:#181818;stroke-width:1.0;"/></g><!--MD5=[17fc3f0c5a16296a4cd57e213d38a982]
link Command to CommandHandler--><g id="link_Command_CommandHandler"><path d="M109.6,419.22 C111.43,435.48 113.88,457.32 115.82,474.62 " fill="none" id="Command-to-CommandHandler" style="stroke:#181818;stroke-width:1.0;"/><polygon fill="#181818" points="116.4,479.83,119.3728,470.4405,115.8431,474.8611,111.4225,471.3315,116.4,479.83" style="stroke:#181818;stroke-width:1.0;"/></g><!--MD5=[49fed5eb6619eb28d27a5d0833733100]
link RequestHandler to Repository--><g id="link_RequestHandler_Repository"><path d="M289.82,528.21 C273.66,559.01 245.3,613.06 229.16,643.83 " fill="none" id="RequestHandler-Repository" style="stroke:#181818;stroke-width:1.0;"/><text fill="#000000" font-family="sans-serif" font-size="13" lengthAdjust="spacing" textLength="70" x="280" y="581.4951">IUnitOfWork</text><path d="M269.0293,583.0549 A10,10 0 0 0 256.5062 576.4844" fill="none" style="stroke:#181818;stroke-width:1.5;"/><ellipse cx="259.4825" cy="586.0313" fill="#FFFFFF" rx="6" ry="6" style="stroke:#181818;stroke-width:1.5;"/></g><!--MD5=[65b54138d48f9e1c41e392b300a52a39]
link CommandHandler to Repository--><g id="link_CommandHandler_Repository"><path d="M129.09,528.11 C137.21,545.98 149.32,571.12 162,592 C172.98,610.08 187.13,629.29 198.32,643.75 " fill="none" id="CommandHandler-Repository" style="stroke:#181818;stroke-width:1.0;"/><text fill="#000000" font-family="sans-serif" font-size="13" lengthAdjust="spacing" textLength="70" x="170" y="581.4951">IUnitOfWork</text><path d="M164.3736,582.2858 A10,10 0 0 0 152.2858 589.6264" fill="none" style="stroke:#181818;stroke-width:1.5;"/><ellipse cx="162" cy="592" fill="#FFFFFF" rx="6" ry="6" style="stroke:#181818;stroke-width:1.5;"/></g><!--MD5=[fab585b61aa7b222b13c3896e9f66b36]
link Repository to Model--><g id="link_Repository_Model"><path d="M217,692.21 C217,723.01 217,777.06 217,807.83 " fill="none" id="Repository-Model" style="stroke:#181818;stroke-width:1.0;"/><text fill="#000000" font-family="sans-serif" font-size="13" lengthAdjust="spacing" textLength="98" x="225" y="745.4951">ILeaveRepository</text><path d="M224.0711,742.9602 A10,10 0 0 0 209.9289 742.9602" fill="none" style="stroke:#181818;stroke-width:1.5;"/><ellipse cx="217" cy="750.0313" fill="#FFFFFF" rx="6" ry="6" style="stroke:#181818;stroke-width:1.5;"/></g><!--MD5=[884a7a234e7d255cc02a760a84a46fb9]
@startuml Leave

frame Presentation {
    component [ClientService] as ClientController #a7d7fd 
}

frame API  {
    component [GetLeaveController]  as QueryService #a2fdba
    component [CreateLeaveController] as CommandService #a2fdba
}

ClientController -(0- QueryService : ILeaveService
ClientController -(0- CommandService : ILeaveService

frame Application {
    component [Request] as Request #ffa09c
    component [RequestHandler] as RequestHandler #ffa09c  
    component [Command] as Command #ffa09c
    component [CommandHandler] as CommandHandler #ffa09c   
}

QueryService -(0- Command : IMediator ICommand
CommandService -(0- Request : IMediator IRequest 

Request - -> RequestHandler
Command - -> CommandHandler

frame "Domain Service" {
    component [LeaveRepository] as Repository #e1d5e7  
}

RequestHandler -(0- Repository : IUnitOfWork
CommandHandler -(0- Repository : IUnitOfWork

frame "Domain Model" {
    component Leave as Model #fcfdb9  
}

Repository -(0- Model : ILeaveRepository

@enduml

PlantUML version 1.2022.7(Mon Aug 22 13:01:30 EDT 2022)
(GPL source distribution)
Java Runtime: OpenJDK Runtime Environment
JVM: OpenJDK 64-Bit Server VM
Default Encoding: UTF-8
Language: en
Country: US
--></g></svg>